<svg width="1262" height="496" viewBox="0 0 1262 496" fill="none" xmlns="http://www.w3.org/2000/svg">
<path d="M581.2 208C571.467 208 562.4 206.133 554 202.4C545.733 198.667 538.467 193.6 532.2 187.2C525.8 180.8 520.8 173.333 517.2 164.8C513.733 156.133 512 146.533 512 136C512 125.867 513.8 116.4 517.4 107.6C521 98.8 525.933 91.2 532.2 84.8C538.467 78.4 545.733 73.3333 554 69.6C562.4 65.8667 571.467 64 581.2 64C590.933 64 600.133 66 608.8 70C617.6 74 625.6 80.0667 632.8 88.2L620.2 98.6C608.733 86.0667 595.733 79.8 581.2 79.8C573.733 79.8 566.867 81.2667 560.6 84.2C554.333 87.1333 548.733 91.1333 543.8 96.2C539 101.267 535.2 107.2 532.4 114C529.733 120.667 528.4 128 528.4 136C528.4 144.133 529.733 151.6 532.4 158.4C535.2 165.067 539 170.867 543.8 175.8C548.733 180.867 554.333 184.867 560.6 187.8C566.867 190.733 573.733 192.2 581.2 192.2C595.733 192.2 608.733 185.933 620.2 173.4L632.8 183.8C625.6 191.933 617.6 198 608.8 202C600.133 206 590.933 208 581.2 208ZM737.119 206H721.319V146.4C721.319 137.333 718.785 130.733 713.719 126.6C708.652 122.333 701.985 120.2 693.719 120.2C689.052 120.2 684.652 121.2 680.519 123.2C676.519 125.067 673.252 127.533 670.719 130.6C668.185 133.667 666.919 136.733 666.919 139.8V206H651.119V66H666.919V115.8C670.519 111.8 675.052 109 680.519 107.4C685.985 105.8 691.119 105.067 695.919 105.2C708.852 105.733 718.919 109.533 726.119 116.6C733.452 123.667 737.119 133.6 737.119 146.4V206ZM840.611 206H824.811V195.6C822.144 199.6 818.344 202.6 813.411 204.6C808.478 206.6 803.078 207.667 797.211 207.8C791.344 208.067 785.611 207.4 780.011 205.8C774.411 204.067 769.678 201.467 765.811 198C761.811 194.533 758.678 190.133 756.411 184.8C754.278 179.467 753.211 173.333 753.211 166.4V106H769.211V166.4C769.211 175.6 771.811 182.333 777.011 186.6C782.344 190.867 789.144 193 797.411 193C801.544 193 805.678 192.067 809.811 190.2C814.078 188.333 817.611 185.467 820.411 181.6C823.344 177.6 824.811 172.533 824.811 166.4V106H840.611V206ZM948.28 206H932.48V146.6C932.48 140.2 931.08 135.067 928.28 131.2C925.613 127.333 922.146 124.6 917.88 123C913.746 121.267 909.413 120.4 904.88 120.4C900.48 120.4 896.08 121.333 891.68 123.2C887.413 125.067 883.813 127.933 880.88 131.8C877.946 135.667 876.48 140.6 876.48 146.6V206H860.68V106H876.48V116.8C879.546 112.667 883.746 109.667 889.08 107.8C894.413 105.8 899.946 104.8 905.68 104.8C913.413 104.8 920.48 106.4 926.88 109.6C933.413 112.8 938.613 117.533 942.48 123.8C946.346 129.933 948.28 137.533 948.28 146.6V206ZM1011.14 246.8C1005.14 246.8 999.144 245.6 993.144 243.2C987.277 240.933 982.344 237.933 978.344 234.2L988.344 223C993.01 226.467 998.277 228.867 1004.14 230.2C1010.14 231.667 1015.68 231.667 1020.74 230.2C1025.94 228.867 1029.74 225.867 1032.14 221.2C1033.61 218.133 1034.61 215 1035.14 211.8C1035.68 208.6 1035.94 204.6 1035.94 199.8C1027.54 204.6 1019.14 206.867 1010.74 206.6C1002.48 206.333 994.877 204.133 987.944 200C981.01 195.733 975.41 190 971.144 182.8C966.877 175.467 964.61 167.133 964.344 157.8C964.077 146.733 965.877 137.333 969.744 129.6C973.61 121.867 978.944 115.933 985.744 111.8C992.544 107.667 1000.28 105.533 1008.94 105.4C1017.74 105.133 1026.81 107.067 1036.14 111.2V106H1052.14V203.8C1052.14 217 1048.74 227.467 1041.94 235.2C1035.14 242.933 1024.88 246.8 1011.14 246.8ZM980.144 157.8C980.277 165 982.01 171.067 985.344 176C988.677 180.8 993.077 184.4 998.544 186.8C1004.01 189.2 1010.01 190.267 1016.54 190C1023.08 189.6 1029.61 187.733 1036.14 184.4V127C1025.21 122.067 1015.48 120 1006.94 120.8C998.544 121.467 991.944 124.933 987.144 131.2C982.344 137.333 980.01 146.2 980.144 157.8ZM1070.2 194.4L1079.6 184.2C1083.74 187.267 1087.87 189.667 1092 191.4C1096.14 193 1100.34 193.733 1104.6 193.6C1107.14 193.6 1109.54 193.267 1111.8 192.6C1114.07 191.933 1116.2 190.8 1118.2 189.2C1120.74 187.333 1122.4 184.933 1123.2 182C1124.14 179.067 1124.14 176.267 1123.2 173.6C1122.14 170.667 1120.2 168.333 1117.4 166.6C1114.6 164.867 1111.27 163.4 1107.4 162.2C1103.67 160.867 1099.74 159.533 1095.6 158.2C1091.6 156.733 1087.87 154.933 1084.4 152.8C1078.4 148.8 1074.54 144.267 1072.8 139.2C1071.07 134 1071.07 128.933 1072.8 124C1074.67 118.933 1077.94 114.667 1082.6 111.2C1087.4 107.733 1093.34 105.733 1100.4 105.2C1107.2 104.8 1113.8 105.6 1120.2 107.6C1126.6 109.6 1131.6 112.4 1135.2 116L1125.2 125.6C1121.87 123.333 1118.27 121.667 1114.4 120.6C1110.54 119.533 1106.8 119 1103.2 119C1098.94 119.133 1095.27 120.133 1092.2 122C1089.27 123.867 1087.6 126.867 1087.2 131C1086.94 134.867 1088.2 137.933 1091 140.2C1093.8 142.333 1097.67 144.267 1102.6 146C1107.54 147.6 1112.87 149.467 1118.6 151.6C1125.27 154.267 1130.4 158.133 1134 163.2C1137.74 168.133 1138.87 174.467 1137.4 182.2C1136.47 189.4 1133.54 195.067 1128.6 199.2C1123.8 203.333 1117.94 205.933 1111 207C1104.07 208.067 1096.94 207.6 1089.6 205.6C1082.4 203.467 1075.94 199.733 1070.2 194.4ZM1239.63 206H1223.83V195.6C1221.17 199.6 1217.37 202.6 1212.43 204.6C1207.5 206.6 1202.1 207.667 1196.23 207.8C1190.37 208.067 1184.63 207.4 1179.03 205.8C1173.43 204.067 1168.7 201.467 1164.83 198C1160.83 194.533 1157.7 190.133 1155.43 184.8C1153.3 179.467 1152.23 173.333 1152.23 166.4V106H1168.23V166.4C1168.23 175.6 1170.83 182.333 1176.03 186.6C1181.37 190.867 1188.17 193 1196.43 193C1200.57 193 1204.7 192.067 1208.83 190.2C1213.1 188.333 1216.63 185.467 1219.43 181.6C1222.37 177.6 1223.83 172.533 1223.83 166.4V106H1239.63V206ZM558.6 434.8C549.8 434.8 541.2 433.067 532.8 429.6C524.533 426.133 517.6 421.867 512 416.8L524.2 405.6C529.133 409.6 534.667 412.8 540.8 415.2C546.933 417.467 552.733 418.6 558.2 418.6C563.667 418.6 568.667 417.533 573.2 415.4C577.867 413.267 581.6 410.333 584.4 406.6C587.2 402.733 588.667 398.267 588.8 393.2C588.933 386.8 586.667 381.667 582 377.8C577.333 373.933 570.133 370.8 560.4 368.4C550.933 366 542.667 363.067 535.6 359.6C528.533 356 523.133 351.467 519.4 346C515.667 340.533 514.133 333.733 514.8 325.6C515.733 314.8 520.2 306.533 528.2 300.8C536.333 294.933 547 292 560.2 292C566.6 292 573.333 292.8 580.4 294.4C587.6 295.867 594.333 298.4 600.6 302L590 314.8C585.333 312.8 580.533 311.2 575.6 310C570.667 308.667 565.667 307.933 560.6 307.8C555.667 307.8 550.933 308.467 546.4 309.8C542 311 538.4 313.067 535.6 316C532.8 318.8 531.333 322.6 531.2 327.4C531.2 332.333 532.533 336.333 535.2 339.4C537.867 342.333 541.467 344.733 546 346.6C550.533 348.467 555.6 350.2 561.2 351.8C570.667 354.333 578.6 357.133 585 360.2C591.533 363.267 596.467 367.333 599.8 372.4C603.133 377.467 604.8 384.4 604.8 393.2C604.8 401.067 602.667 408.133 598.4 414.4C594.267 420.667 588.667 425.667 581.6 429.4C574.667 433 567 434.8 558.6 434.8ZM632.134 389.8V347.8H614.734V333H632.134V293H647.934V333H665.534V347.8H647.934V389.8C647.934 398.333 648.201 404.6 648.734 408.6C649.401 412.467 650.668 414.933 652.534 416C654.401 417.067 657.134 417.667 660.734 417.8H665.734V433.6H661.334C655.201 433.6 650.201 433.067 646.334 432C642.468 430.8 639.468 428.667 637.334 425.6C635.334 422.533 633.934 418.133 633.134 412.4C632.468 406.667 632.134 399.133 632.134 389.8ZM768.541 433H752.741V422.6C750.074 426.6 746.274 429.6 741.341 431.6C736.407 433.6 731.007 434.667 725.141 434.8C719.274 435.067 713.541 434.4 707.941 432.8C702.341 431.067 697.607 428.467 693.741 425C689.741 421.533 686.607 417.133 684.341 411.8C682.207 406.467 681.141 400.333 681.141 393.4V333H697.141V393.4C697.141 402.6 699.741 409.333 704.941 413.6C710.274 417.867 717.074 420 725.341 420C729.474 420 733.607 419.067 737.741 417.2C742.007 415.333 745.541 412.467 748.341 408.6C751.274 404.6 752.741 399.533 752.741 393.4V333H768.541V433ZM823.609 432.8C815.609 431.867 808.809 429.067 803.209 424.4C797.743 419.733 793.609 413.8 790.809 406.6C788.009 399.267 786.609 391.067 786.609 382C786.609 372.267 788.343 363.667 791.809 356.2C795.409 348.6 800.543 342.667 807.209 338.4C814.009 334 822.209 331.8 831.809 331.8C835.676 331.8 839.676 332.067 843.809 332.6C848.076 333.133 852.676 334.667 857.609 337.2V293H873.409V433H857.609V423.6C853.876 426.8 848.943 429.4 842.809 431.4C836.676 433.4 830.276 433.867 823.609 432.8ZM857.609 410.2V352.2C848.009 348.2 839.009 346.667 830.609 347.6C822.343 348.533 815.609 351.933 810.409 357.8C805.209 363.533 802.609 371.6 802.609 382C802.609 390.4 804.143 397.467 807.209 403.2C810.409 408.8 814.676 412.933 820.009 415.6C825.343 418.267 831.209 419.2 837.609 418.4C844.143 417.6 850.809 414.867 857.609 410.2ZM902.186 467.4V451.8C906.053 451.8 909.653 450.933 912.986 449.2C916.319 447.6 919.119 445.4 921.386 442.6C923.653 439.933 924.986 436.933 925.386 433.6L887.586 333H904.986L934.986 414.4L963.186 333H980.786L945.586 427.2C942.653 435.467 939.386 442.533 935.786 448.4C932.186 454.4 927.719 459 922.386 462.2C917.186 465.533 910.453 467.267 902.186 467.4Z" fill="black"/>
<circle cx="241" cy="253" r="241" fill="#81CAFF"/>
<path d="M353.93 356.5C340.518 370.042 324.503 380.654 305.883 388.336C287.263 396.018 266.951 399.859 244.945 399.859C222.94 399.859 202.628 396.083 184.008 388.531C165.518 380.979 149.438 370.367 135.766 356.695C122.094 342.893 111.482 326.747 103.93 308.258C96.3776 289.638 92.6016 269.391 92.6016 247.516C92.6016 225.51 96.3776 205.263 103.93 186.773C111.482 168.154 122.094 152.008 135.766 138.336C149.438 124.664 165.518 114.052 184.008 106.5C202.628 98.9479 222.94 95.1719 244.945 95.1719C266.82 95.1719 287.068 99.013 305.688 106.695C324.307 114.247 340.323 124.794 353.734 138.336L329.711 162.75C319.294 151.161 306.794 142.112 292.211 135.602C277.628 128.961 261.677 125.641 244.359 125.641C227.562 125.641 212.068 128.701 197.875 134.82C183.682 140.81 171.312 149.339 160.766 160.406C150.349 171.344 142.211 184.234 136.352 199.078C130.622 213.922 127.758 230.068 127.758 247.516C127.758 265.094 130.622 281.305 136.352 296.148C142.211 310.862 150.349 323.753 160.766 334.82C171.312 345.758 183.682 354.286 197.875 360.406C212.068 366.396 227.562 369.391 244.359 369.391C261.677 369.391 277.628 366.135 292.211 359.625C306.794 352.984 319.294 343.87 329.711 332.281L353.93 356.5Z" fill="#F1F3F8"/>
<path d="M141.394 361.841L157.788 335.803C166.146 342.618 174.504 348.276 182.861 352.776C191.219 357.276 199.705 360.619 208.32 362.805C217.064 364.991 225.936 366.084 234.937 366.084C248.052 366.084 259.495 363.898 269.268 359.526C279.168 355.155 286.883 349.111 292.412 341.396C297.941 333.553 300.706 324.552 300.706 314.395C300.706 303.337 297.555 294.207 291.255 287.007C285.083 279.678 277.047 273.442 267.146 268.298C257.245 263.155 246.702 258.269 235.515 253.64C226.129 249.654 216.807 245.411 207.549 240.911C198.291 236.41 189.869 231.203 182.283 225.288C174.825 219.245 168.846 211.98 164.346 203.494C159.845 195.007 157.595 184.785 157.595 172.827C157.595 157.526 161.453 144.025 169.167 132.324C176.882 120.623 187.555 111.494 201.184 104.937C214.942 98.3789 230.758 95.1001 248.63 95.1001C260.717 95.1001 272.868 96.7074 285.083 99.9219C297.298 103.008 309.128 107.572 320.571 113.616L306.685 141.389C297.684 136.117 288.233 132.067 278.333 129.238C268.56 126.41 258.917 124.995 249.402 124.995C238.087 124.995 228.122 126.924 219.507 130.781C211.021 134.51 204.334 139.782 199.448 146.597C194.691 153.283 192.312 161.126 192.312 170.127C192.312 180.156 195.205 188.578 200.991 195.393C206.906 202.208 214.492 208.123 223.75 213.137C233.136 218.023 243.037 222.781 253.452 227.41C263.353 231.781 273.125 236.41 282.769 241.296C292.541 246.054 301.348 251.711 309.192 258.269C317.164 264.698 323.529 272.413 328.286 281.414C333.044 290.414 335.422 301.279 335.422 314.009C335.422 330.339 331.308 344.675 323.079 357.019C314.849 369.234 303.277 378.749 288.362 385.564C273.575 392.379 256.217 395.786 236.287 395.786C218.8 395.786 202.148 392.957 186.333 387.3C170.518 381.642 155.538 373.156 141.394 361.841Z" fill="#F1F3F8"/>
<circle cx="241" cy="315" r="13" fill="white"/>
<circle cx="582" cy="135" r="13" fill="black"/>
</svg>
